<svg width="20" height="21" viewBox="0 0 20 21" fill="none" xmlns="http://www.w3.org/2000/svg">
<g clip-path="url(#clip0_9_80)">
<path d="M19.9896 10.6871C19.9896 9.8677 19.9215 9.26977 19.7743 8.64969H10.1993V12.348H15.8196C15.7064 13.2671 15.0945 14.6512 13.7347 15.5813L13.7156 15.7051L16.743 17.9969L16.9528 18.0174C18.8791 16.2789 19.9896 13.7211 19.9896 10.6871Z" fill="#4285F4"/>
<path d="M10.1991 20.4313C12.9526 20.4313 15.2642 19.5454 16.9526 18.0174L13.7345 15.5813C12.8733 16.1682 11.7175 16.5779 10.1991 16.5779C7.5023 16.5779 5.2134 14.8395 4.39747 12.4366L4.27787 12.4466L1.12991 14.8273L1.08875 14.9391C2.76576 18.1945 6.21048 20.4313 10.1991 20.4313Z" fill="#34A853"/>
<path d="M4.3976 12.4367C4.18231 11.8166 4.05771 11.1522 4.05771 10.4657C4.05771 9.77912 4.18231 9.11476 4.38627 8.49469L4.38057 8.36263L1.19316 5.9437L1.08888 5.99217C0.397698 7.34308 0.00109863 8.86011 0.00109863 10.4657C0.00109863 12.0713 0.397698 13.5882 1.08888 14.9391L4.3976 12.4367Z" fill="#FBBC05"/>
<path d="M10.1991 4.35339C12.1141 4.35339 13.4058 5.16171 14.1424 5.83721L17.0205 3.0911C15.2529 1.48553 12.9526 0.500031 10.1991 0.500031C6.21048 0.500031 2.76576 2.73675 1.08875 5.99217L4.38614 8.49469C5.2134 6.09186 7.5023 4.35339 10.1991 4.35339Z" fill="#EB4335"/>
</g>
<defs>
<clipPath id="clip0_9_80">
<rect width="20" height="20" fill="white" transform="translate(0 0.5)"/>
</clipPath>
</defs>
</svg>
