<svg width="118" height="20" viewBox="0 0 118 20" fill="none" xmlns="http://www.w3.org/2000/svg">
<path d="M3.51426 0.407651C3.82631 0.407651 4.08454 0.650375 4.10383 0.961834C4.13663 1.49134 4.82782 1.73732 5.25148 1.41801C6.45958 0.507494 7.95521 0.0522357 9.73837 0.0522357C11.4096 0.0522357 12.7379 0.467778 13.7232 1.29886C14.4635 1.92326 15.7276 2.03687 16.4946 1.44566C17.6999 0.51671 19.1737 0.0522357 20.9162 0.0522357C23.0368 0.0522357 24.6125 0.63867 25.6432 1.81154C26.6857 2.98441 27.2189 4.7141 27.2426 7.0006V18.363C27.2426 19.0658 26.6728 19.6356 25.97 19.6356H24.1969C23.494 19.6356 22.9243 19.0658 22.9243 18.363V7.12499C22.9243 5.90474 22.6577 5.01027 22.1246 4.44161C21.5915 3.87295 20.7088 3.58861 19.4767 3.58861C18.4934 3.58861 17.6878 3.85518 17.0599 4.3883C16.4864 4.87355 16.0721 5.50252 15.8169 6.27522C15.7789 6.39027 15.7627 6.51122 15.7629 6.63238L15.7787 18.3613C15.7797 19.0648 15.2096 19.6356 14.5061 19.6356H12.7347C12.0319 19.6356 11.4621 19.0658 11.4621 18.363V6.98283C11.4029 4.72002 10.2478 3.58861 7.99684 3.58861C6.38077 3.58861 5.20423 4.20395 4.46722 5.43463C4.3635 5.60783 4.31829 5.80862 4.31829 6.0105V18.363C4.31829 19.0658 3.74853 19.6356 3.0457 19.6356H1.2726C0.569761 19.6356 0 19.0658 0 18.363V1.68024C0 0.97741 0.56976 0.407651 1.27259 0.407651H3.51426Z" fill="#131313"/>
<path d="M41.1968 19.7575C38.4927 20.1785 36.1657 19.6715 34.2157 18.2366C32.2757 16.7881 31.0851 14.6474 30.6441 11.8145L30.5621 11.2878C30.2668 9.39136 30.3664 7.64332 30.8607 6.04365C31.3649 4.43045 32.2137 3.10531 33.4071 2.06823C34.6005 1.03116 36.0108 0.385956 37.6379 0.132632C40.225 -0.270135 42.3494 0.244417 44.0111 1.67629C45.6845 3.10633 46.7563 5.33145 47.2265 8.35164L47.2986 8.815C47.4067 9.50946 46.9314 10.1601 46.2369 10.2682L36.4449 11.7927C35.7099 11.9071 35.2152 12.6338 35.5166 13.3139C35.9204 14.2252 36.489 14.9487 37.2223 15.4844C38.2893 16.2535 39.5193 16.5296 40.9123 16.3128C42.3944 16.082 43.5972 15.4296 44.5207 14.3555C45.012 13.7841 45.8567 13.5723 46.4754 14.0024L47.0819 14.4241C47.5902 14.7775 47.7802 15.4526 47.4443 15.9725C46.8981 16.8183 46.1896 17.5483 45.3188 18.1626C44.1511 18.9799 42.7771 19.5115 41.1968 19.7575ZM38.1534 3.55941C36.9828 3.74166 36.0984 4.299 35.5002 5.23142C35.1172 5.83912 34.8654 6.567 34.7448 7.41506C34.6362 8.17837 35.3419 8.76311 36.1037 8.64451L42.4775 7.6522C42.6521 7.62502 42.7715 7.46148 42.7444 7.28692C42.4284 5.87335 41.8803 4.85562 41.1 4.23372C40.318 3.60011 39.3358 3.37534 38.1534 3.55941Z" fill="#131313"/>
<path d="M49.2382 6.68199C49.9069 4.92101 50.8573 3.46972 52.0892 2.32814C53.3254 1.17548 54.7177 0.462338 56.2663 0.188713C57.8192 -0.0959864 59.4151 0.0729184 61.0543 0.695428C63.4798 1.61657 65.1491 3.14398 66.0623 5.27764C66.9866 7.41551 67.0196 9.79785 66.1614 12.4247L65.8184 13.3779C65.1454 15.15 64.2006 16.6034 62.984 17.7381C61.7784 18.877 60.3937 19.5867 58.8298 19.8672C57.2769 20.1519 55.6699 19.9788 54.0086 19.3479C51.4723 18.3847 49.7597 16.7711 48.8706 14.5072C47.9968 12.2364 48.0941 9.69449 49.1625 6.88135L49.2382 6.68199ZM53.1427 8.564C52.4402 10.4136 52.2713 12.0096 52.6359 13.352C53.0048 14.6833 53.8703 15.6076 55.2326 16.125C56.5948 16.6423 57.8544 16.5124 59.0113 15.7352C60.1793 14.9621 61.1524 13.5512 61.9305 11.5022C62.6203 9.68587 62.774 8.09675 62.3914 6.73488C62.0199 5.37722 61.1641 4.44391 59.824 3.93497C58.506 3.43444 57.2596 3.56304 56.0848 4.32077C54.9141 5.06742 53.9334 6.48183 53.1427 8.564Z" fill="#131313"/>
<path d="M84.0749 12.3051C84.1878 12.68 84.7246 12.6622 84.8125 12.2807L87.4781 0.703764C87.518 0.530452 87.6723 0.407651 87.8502 0.407651H91.2582C91.5099 0.407651 91.6927 0.646995 91.6265 0.889853L86.5923 19.3542C86.547 19.5204 86.3962 19.6356 86.224 19.6356H83.2422C83.0752 19.6356 82.9276 19.527 82.8778 19.3676L79.2062 7.6092C79.0944 7.25096 78.5869 7.25221 78.4768 7.61099L74.8697 19.3658C74.8205 19.5261 74.6724 19.6356 74.5047 19.6356H71.5241C71.3521 19.6356 71.2013 19.5205 71.1559 19.3546L66.1046 0.89017C66.0382 0.647238 66.221 0.407651 66.4729 0.407651H69.8824C70.0593 0.407651 70.2131 0.529256 70.2539 0.701455L72.9663 12.1558C73.0563 12.5358 73.5912 12.5514 73.7036 12.1774C74.9741 7.94819 75.8071 5.1751 77.1571 0.681152C77.2056 0.519734 77.3547 0.407651 77.5232 0.407651H80.2076C80.376 0.407651 80.5246 0.518039 80.5732 0.679322L84.0749 12.3051Z" fill="#131313"/>
<path d="M97.0004 0.407651C97.338 0.407651 97.6168 0.671354 97.6357 1.00842C97.668 1.58617 98.4278 1.85188 98.8837 1.49558C100.115 0.53335 101.595 0.0522357 103.324 0.0522357C107.329 0.0522357 109.366 2.34466 109.437 6.92951V18.9993C109.437 19.3507 109.152 19.6356 108.801 19.6356H105.755C105.404 19.6356 105.119 19.3507 105.119 18.9993V7.17831C105.119 5.95805 104.852 5.05766 104.319 4.47715C103.798 3.88479 102.939 3.58861 101.743 3.58861C100.054 3.58861 98.7827 4.32953 97.9294 5.81136C97.8766 5.90303 97.8508 6.00752 97.8508 6.1133V18.9993C97.8508 19.3507 97.5659 19.6356 97.2145 19.6356H94.1688C93.8174 19.6356 93.5325 19.3507 93.5325 18.9993V1.04395C93.5325 0.692531 93.8174 0.407651 94.1688 0.407651H97.0004Z" fill="#131313"/>
<path d="M114.484 15.0863C115.29 15.0863 115.912 15.3173 116.35 15.7793C116.788 16.2295 117.008 16.7982 117.008 17.4853C117.008 18.1606 116.788 18.7234 116.35 19.1736C115.912 19.6119 115.29 19.8311 114.484 19.8311C113.714 19.8311 113.104 19.6119 112.654 19.1736C112.204 18.7352 111.979 18.1725 111.979 17.4853C111.979 16.7982 112.198 16.2295 112.636 15.7793C113.074 15.3173 113.69 15.0863 114.484 15.0863Z" fill="#131313"/>
</svg>
